# xmcd
#
# Track frame offsets:
#	150
#	9119
#	31139
#	48745
#	59446
#	81635
#	99691
#	116994
#	130064
#	147864
#	163212
#	179222
#
# Disc length: 2638 seconds
# Revision: 0
# Processed by: cddbd v1.5.2PL0 Copyright (c) Steve Scherf et al.
# Submitted via: dBpowerAMP V12.0
#
DISCID=b00a4c0c
DTITLE=Jeff Black - B-Sides and Confessions, Volume Two
DYEAR=2013
DGENRE=Country
TTITLE0=All Right Now
TTITLE1=Molly Rose
TTITLE2=Avalon
TTITLE3=Impala
TTITLE4=Alice Carry
TTITLE5=Days On End
TTITLE6=Miss Me
TTITLE7=An Evil Lesson Is Soon Learned
TTITLE8=Good Old Days
TTITLE9=True Love Never Let Me Down
TTITLE10=Remain
TTITLE11=Sunday Falling
EXTD=
EXTT0=
EXTT1=
EXTT2=
EXTT3=
EXTT4=
EXTT5=
EXTT6=
EXTT7=
EXTT8=
EXTT9=
EXTT10=
EXTT11=
PLAYORDER=
